<svg width="88" height="126" viewBox="0 0 88 126" fill="none" xmlns="http://www.w3.org/2000/svg">
<rect x="0.385965" y="0.385965" width="87.2281" height="125.053" rx="2.70175" stroke="#333333" stroke-opacity="0.2" stroke-width="0.77193" stroke-dasharray="3.86 3.86"/>
<path d="M23.2243 54.3217H19.8414L19.1925 56.0876H18.4053L21.118 48.7475H21.9584L24.6604 56.0876H23.8732L23.2243 54.3217ZM23.0009 53.7047L21.5328 49.6836L20.0648 53.7047H23.0009ZM25.5151 53.1728C25.5151 52.5771 25.6357 52.0559 25.8768 51.6091C26.1179 51.1552 26.4477 50.8077 26.8661 50.5665C27.2916 50.3183 27.7703 50.1942 28.3022 50.1942C28.8129 50.1942 29.2738 50.3183 29.6852 50.5665C30.0965 50.8148 30.3979 51.1374 30.5894 51.5346V48.2156H31.3341V56.0876H30.5894V54.7898C30.4121 55.1941 30.1213 55.5274 29.7171 55.7898C29.3128 56.0451 28.8377 56.1728 28.2916 56.1728C27.7597 56.1728 27.281 56.0486 26.8555 55.8004C26.437 55.5522 26.1073 55.2011 25.8661 54.7473C25.6321 54.2934 25.5151 53.7686 25.5151 53.1728ZM30.5894 53.1835C30.5894 52.7154 30.4937 52.3041 30.3022 51.9495C30.1107 51.5949 29.8483 51.3218 29.515 51.1304C29.1887 50.9389 28.827 50.8431 28.4299 50.8431C28.0186 50.8431 27.6498 50.9353 27.3235 51.1197C26.9973 51.3041 26.7385 51.5736 26.547 51.9282C26.3626 52.2757 26.2704 52.6906 26.2704 53.1728C26.2704 53.648 26.3626 54.0664 26.547 54.4281C26.7385 54.7827 26.9973 55.0558 27.3235 55.2472C27.6498 55.4316 28.0186 55.5238 28.4299 55.5238C28.827 55.5238 29.1887 55.4281 29.515 55.2366C29.8483 55.0451 30.1107 54.7721 30.3022 54.4175C30.4937 54.0629 30.5894 53.6516 30.5894 53.1835ZM32.6936 53.1728C32.6936 52.5771 32.8142 52.0559 33.0553 51.6091C33.2965 51.1552 33.6262 50.8077 34.0447 50.5665C34.4702 50.3183 34.9489 50.1942 35.4808 50.1942C35.9914 50.1942 36.4524 50.3183 36.8637 50.5665C37.2751 50.8148 37.5765 51.1374 37.7679 51.5346V48.2156H38.5126V56.0876H37.7679V54.7898C37.5906 55.1941 37.2999 55.5274 36.8956 55.7898C36.4914 56.0451 36.0162 56.1728 35.4701 56.1728C34.9382 56.1728 34.4595 56.0486 34.034 55.8004C33.6156 55.5522 33.2858 55.2011 33.0447 54.7473C32.8107 54.2934 32.6936 53.7686 32.6936 53.1728ZM37.7679 53.1835C37.7679 52.7154 37.6722 52.3041 37.4807 51.9495C37.2892 51.5949 37.0268 51.3218 36.6935 51.1304C36.3673 50.9389 36.0056 50.8431 35.6084 50.8431C35.1971 50.8431 34.8283 50.9353 34.5021 51.1197C34.1759 51.3041 33.917 51.5736 33.7255 51.9282C33.5411 52.2757 33.4489 52.6906 33.4489 53.1728C33.4489 53.648 33.5411 54.0664 33.7255 54.4281C33.917 54.7827 34.1759 55.0558 34.5021 55.2472C34.8283 55.4316 35.1971 55.5238 35.6084 55.5238C36.0056 55.5238 36.3673 55.4281 36.6935 55.2366C37.0268 55.0451 37.2892 54.7721 37.4807 54.4175C37.6722 54.0629 37.7679 53.6516 37.7679 53.1835ZM45.3871 56.1621C44.8977 56.1621 44.4651 56.077 44.0892 55.9068C43.7204 55.7366 43.4297 55.499 43.2169 55.1941C43.0041 54.8891 42.8907 54.5487 42.8765 54.1728H43.6637C43.6992 54.5345 43.8587 54.8536 44.1424 55.1302C44.4261 55.3997 44.841 55.5345 45.3871 55.5345C45.8906 55.5345 46.2877 55.4068 46.5785 55.1515C46.8764 54.8891 47.0253 54.5593 47.0253 54.1622C47.0253 53.843 46.9437 53.5877 46.7806 53.3962C46.6175 53.1977 46.4154 53.0523 46.1743 52.9601C45.9331 52.8608 45.5998 52.7544 45.1743 52.6409C44.6779 52.5062 44.2843 52.375 43.9935 52.2473C43.7027 52.1197 43.4545 51.9211 43.2488 51.6516C43.0432 51.3821 42.9403 51.0169 42.9403 50.5559C42.9403 50.1729 43.0396 49.8325 43.2382 49.5347C43.4368 49.2297 43.7169 48.9921 44.0786 48.8219C44.4403 48.6517 44.8552 48.5666 45.3232 48.5666C46.0111 48.5666 46.5643 48.7368 46.9827 49.0772C47.4083 49.4106 47.6529 49.8432 47.7168 50.3751H46.9083C46.8586 50.0701 46.692 49.8006 46.4083 49.5666C46.1246 49.3254 45.7417 49.2049 45.2594 49.2049C44.8126 49.2049 44.4403 49.3254 44.1424 49.5666C43.8445 49.8006 43.6956 50.1233 43.6956 50.5346C43.6956 50.8467 43.7772 51.0984 43.9403 51.2899C44.1034 51.4814 44.3055 51.6268 44.5467 51.7261C44.7949 51.8254 45.1282 51.9317 45.5466 52.0452C46.0289 52.18 46.4189 52.3147 46.7168 52.4495C47.0147 52.5771 47.2664 52.7757 47.4721 53.0452C47.6778 53.3147 47.7806 53.6764 47.7806 54.1303C47.7806 54.4778 47.6884 54.8075 47.504 55.1196C47.3196 55.4316 47.0466 55.6834 46.6849 55.8749C46.3232 56.0664 45.8906 56.1621 45.3871 56.1621ZM51.9854 50.1729C52.4251 50.1729 52.8187 50.2651 53.1662 50.4495C53.5208 50.6339 53.7974 50.9176 53.996 51.3006C54.2017 51.6764 54.3045 52.1374 54.3045 52.6835V56.0876H53.5705V52.7686C53.5705 52.1374 53.4109 51.6552 53.0918 51.3218C52.7797 50.9885 52.3507 50.8219 51.8046 50.8219C51.2443 50.8219 50.7975 50.9992 50.4642 51.3538C50.1309 51.7084 49.9642 52.2296 49.9642 52.9175V56.0876H49.2195V48.2156H49.9642V51.2686C50.1486 50.9211 50.4181 50.6516 50.7727 50.4602C51.1344 50.2687 51.5386 50.1729 51.9854 50.1729ZM58.4939 56.1728C57.9478 56.1728 57.4549 56.0522 57.0152 55.8111C56.5826 55.5628 56.2386 55.2153 55.9833 54.7685C55.7351 54.3147 55.611 53.7863 55.611 53.1835C55.611 52.5807 55.7386 52.0559 55.9939 51.6091C56.2492 51.1552 56.5967 50.8077 57.0365 50.5665C57.4762 50.3183 57.969 50.1942 58.5151 50.1942C59.0612 50.1942 59.5541 50.3183 59.9938 50.5665C60.4406 50.8077 60.7881 51.1552 61.0363 51.6091C61.2916 52.0559 61.4193 52.5807 61.4193 53.1835C61.4193 53.7792 61.2916 54.304 61.0363 54.7579C60.781 55.2118 60.43 55.5628 59.9832 55.8111C59.5364 56.0522 59.0399 56.1728 58.4939 56.1728ZM58.4939 55.5238C58.8768 55.5238 59.2314 55.4387 59.5576 55.2685C59.8839 55.0912 60.1463 54.8288 60.3449 54.4813C60.5505 54.1267 60.6534 53.6941 60.6534 53.1835C60.6534 52.6729 60.5541 52.2438 60.3555 51.8963C60.1569 51.5417 59.8945 51.2793 59.5683 51.1091C59.2421 50.9318 58.8875 50.8431 58.5045 50.8431C58.1215 50.8431 57.7669 50.9318 57.4407 51.1091C57.1145 51.2793 56.8521 51.5417 56.6535 51.8963C56.462 52.2438 56.3663 52.6729 56.3663 53.1835C56.3663 53.6941 56.462 54.1267 56.6535 54.4813C56.8521 54.8288 57.1109 55.0912 57.4301 55.2685C57.7563 55.4387 58.1109 55.5238 58.4939 55.5238ZM70.436 50.2793L68.617 56.0876H67.8723L66.266 51.2155L64.6596 56.0876H63.9043L62.0852 50.2793H62.8405L64.2873 55.3324L65.9149 50.2793H66.6596L68.2659 55.343L69.702 50.2793H70.436ZM53.1015 71.3079H44.6621V79.7818H43.9731V71.3079H35.5681V70.6879H43.9731V62.214H44.6621V70.6879H53.1015V71.3079Z" fill="#333333" fill-opacity="0.5"/>
</svg>
