<svg width="37" height="36" viewBox="0 0 37 36" fill="none" xmlns="http://www.w3.org/2000/svg">
<path d="M2.89348 22.4168H4.50107L0.970551 17.8546C0.71819 18.106 0.518741 18.4054 0.383976 18.7352C0.249188 19.065 0.181836 19.4184 0.185894 19.7747C0.202608 21.2455 1.42618 22.4168 2.89348 22.4168ZM17.5362 1.29701L0.970672 17.8545L36.5185 20.7267C36.6474 20.4143 36.7131 20.0794 36.7118 19.7414H36.8118C36.8118 19.7413 36.8118 19.7411 36.8118 19.741C36.8117 19.0314 36.5318 18.3593 36.0271 17.8546L35.9564 17.9253L36.0271 17.8546L20.5021 2.33765L20.5021 2.33763L19.4615 1.29702L19.4613 1.29679C19.2054 1.04264 18.8595 0.9 18.4988 0.9C18.1382 0.9 17.7922 1.04264 17.5364 1.29679L17.5362 1.29701ZM29.5037 19.324H29.4037V19.424V32.4101H23.4203V23.3494C23.4203 22.4063 22.6563 21.6423 21.7131 21.6423H15.2845C14.3414 21.6423 13.5774 22.4063 13.5774 23.3494V32.4101H7.59392V19.424V19.324H7.49392H3.87834L18.5028 4.71136L19.3603 5.5688L19.3603 5.56882L33.1234 19.324H29.5037ZM16.3488 32.4101V24.4137H20.6488V32.4101H16.3488Z" fill="black" stroke="black" stroke-width="0.2"/>
</svg>
