<svg width="29" height="36" viewBox="0 0 29 36" fill="none" xmlns="http://www.w3.org/2000/svg">
<path d="M27 0H1.28571C0.574554 0 0 0.574554 0 1.28571V34.7143C0 35.4254 0.574554 36 1.28571 36H27C27.7112 36 28.2857 35.4254 28.2857 34.7143V1.28571C28.2857 0.574554 27.7112 0 27 0ZM2.89286 2.89286H25.3929V11.25H2.89286V2.89286ZM25.3929 22.1786H2.89286V13.8214H25.3929V22.1786ZM25.3929 33.1071H2.89286V24.75H25.3929V33.1071ZM5.78571 7.07143C5.78571 7.49767 5.95504 7.90645 6.25644 8.20785C6.55783 8.50925 6.96662 8.67857 7.39286 8.67857C7.8191 8.67857 8.22788 8.50925 8.52928 8.20785C8.83068 7.90645 9 7.49767 9 7.07143C9 6.64519 8.83068 6.2364 8.52928 5.93501C8.22788 5.63361 7.8191 5.46429 7.39286 5.46429C6.96662 5.46429 6.55783 5.63361 6.25644 5.93501C5.95504 6.2364 5.78571 6.64519 5.78571 7.07143ZM5.78571 18C5.78571 18.4262 5.95504 18.835 6.25644 19.1364C6.55783 19.4378 6.96662 19.6071 7.39286 19.6071C7.8191 19.6071 8.22788 19.4378 8.52928 19.1364C8.83068 18.835 9 18.4262 9 18C9 17.5738 8.83068 17.165 8.52928 16.8636C8.22788 16.5622 7.8191 16.3929 7.39286 16.3929C6.96662 16.3929 6.55783 16.5622 6.25644 16.8636C5.95504 17.165 5.78571 17.5738 5.78571 18ZM5.78571 28.9286C5.78571 29.3548 5.95504 29.7636 6.25644 30.065C6.55783 30.3664 6.96662 30.5357 7.39286 30.5357C7.8191 30.5357 8.22788 30.3664 8.52928 30.065C8.83068 29.7636 9 29.3548 9 28.9286C9 28.5023 8.83068 28.0935 8.52928 27.7921C8.22788 27.4908 7.8191 27.3214 7.39286 27.3214C6.96662 27.3214 6.55783 27.4908 6.25644 27.7921C5.95504 28.0935 5.78571 28.5023 5.78571 28.9286Z" fill="#39A0ED" fill-opacity="0.85"/>
</svg>
