<svg width="33" height="33" viewBox="0 0 33 33" fill="none" xmlns="http://www.w3.org/2000/svg">
<path d="M32.7582 29.8326L22.3238 19.3982C23.943 17.3049 24.8189 14.7455 24.8189 12.0536C24.8189 8.83125 23.5613 5.80982 21.2872 3.5317C19.0131 1.25357 15.9837 0 12.7654 0C9.54706 0 6.5176 1.25759 4.24349 3.5317C1.96536 5.8058 0.711792 8.83125 0.711792 12.0536C0.711792 15.2719 1.96938 18.3013 4.24349 20.5754C6.5176 22.8536 9.54304 24.1071 12.7654 24.1071C15.4573 24.1071 18.0127 23.2313 20.106 21.6161L30.5404 32.0464C30.571 32.077 30.6073 32.1013 30.6473 32.1179C30.6873 32.1345 30.7301 32.143 30.7734 32.143C30.8167 32.143 30.8595 32.1345 30.8995 32.1179C30.9395 32.1013 30.9758 32.077 31.0064 32.0464L32.7582 30.2987C32.7888 30.2681 32.8131 30.2317 32.8297 30.1918C32.8463 30.1518 32.8548 30.1089 32.8548 30.0656C32.8548 30.0223 32.8463 29.9795 32.8297 29.9395C32.8131 29.8995 32.7888 29.8632 32.7582 29.8326V29.8326ZM19.1297 18.4179C17.4261 20.1174 15.168 21.0536 12.7654 21.0536C10.3627 21.0536 8.10465 20.1174 6.40108 18.4179C4.70152 16.7143 3.76536 14.4563 3.76536 12.0536C3.76536 9.65089 4.70152 7.38884 6.40108 5.68929C8.10465 3.98973 10.3627 3.05357 12.7654 3.05357C15.168 3.05357 17.4301 3.98571 19.1297 5.68929C20.8292 7.39286 21.7654 9.65089 21.7654 12.0536C21.7654 14.4563 20.8292 16.7183 19.1297 18.4179Z" fill="#39A0ED" fill-opacity="0.85"/>
</svg>
