<svg width="33" height="33" viewBox="0 0 33 33" fill="none" xmlns="http://www.w3.org/2000/svg">
<path d="M21.9284 19.0923L21.659 19.4405L21.9703 19.7518L32.284 30.0655L30.7735 31.5725L20.4595 21.2624L20.1486 20.9517L19.8005 21.2202C17.7951 22.7676 15.3473 23.6071 12.7654 23.6071C9.6756 23.6071 6.77753 22.4062 4.59735 20.2222L4.59704 20.2219C2.41653 18.0414 1.21179 15.139 1.21179 12.0536C1.21179 8.96381 2.41271 6.06573 4.59673 3.88556L4.59704 3.88525C6.77755 1.70474 9.67991 0.5 12.7654 0.5C15.8512 0.5 18.7533 1.70098 20.9334 3.88494C23.1144 6.06984 24.3189 8.96444 24.3189 12.0536C24.3189 14.6356 23.4793 17.0872 21.9284 19.0923ZM32.4048 30.1862C32.4047 30.1862 32.4047 30.1862 32.4047 30.1861L32.5251 30.0657L32.5252 30.0656L32.5252 30.0656L32.5253 30.0656L32.5253 30.0656L32.4048 30.1862ZM32.5255 30.0654L32.5255 30.0654L32.7566 29.8342L32.5255 30.0654ZM30.6528 31.693C30.6529 31.6928 30.6531 31.6926 30.6533 31.6925L30.6528 31.693ZM19.4828 18.7718L19.4832 18.7714C21.2766 16.978 22.2654 14.5888 22.2654 12.0536C22.2654 9.51804 21.2764 7.13313 19.4836 5.33615C17.6897 3.53799 15.3 2.55357 12.7654 2.55357C10.2298 2.55357 7.84493 3.54257 6.04794 5.33532L6.04752 5.33573C4.25414 7.12912 3.26536 9.51838 3.26536 12.0536C3.26536 14.5891 4.25436 16.974 6.04711 18.771L6.04794 18.7718C7.84493 20.5646 10.2298 21.5536 12.7654 21.5536C15.3009 21.5536 17.6858 20.5646 19.4828 18.7718Z" fill="#333333" fill-opacity="0.85" stroke="black"/>
</svg>
